<?xml version="1.0" standalone="no"?>
<!DOCTYPE svg PUBLIC "-//W3C//DTD SVG 20010904//EN"
 "http://www.w3.org/TR/2001/REC-SVG-20010904/DTD/svg10.dtd">
<svg version="1.0" xmlns="http://www.w3.org/2000/svg"
 width="300.000000pt" height="300.000000pt" viewBox="0 0 300.000000 300.000000"
 preserveAspectRatio="xMidYMid meet">
<metadata>
Created by potrace 1.11, written by Peter Selinger 2001-2013
</metadata>
<g transform="translate(0.000000,300.000000) scale(0.100000,-0.100000)"
fill="#000000" stroke="none">
<path d="M1434 2495 c-68 -21 -117 -51 -168 -101 -67 -67 -101 -146 -121 -274
-9 -58 -20 -127 -25 -155 -5 -31 -4 -57 2 -68 5 -11 7 -46 2 -85 -9 -88 1 -77
21 23 8 44 18 90 21 103 7 33 49 46 102 31 44 -12 42 -29 -4 -29 -11 0 -29 -9
-39 -20 -21 -23 -9 -26 19 -5 11 8 34 15 50 14 29 -1 28 -2 -13 -15 -63 -20
-76 -32 -55 -55 10 -11 22 -19 27 -19 6 0 3 6 -8 13 -17 13 -17 15 6 31 23 16
24 16 27 -4 4 -22 7 -24 56 -35 23 -5 27 -3 23 9 -4 10 -1 16 8 16 18 0 19 12
3 28 -9 9 -9 12 1 12 17 0 3 20 -23 30 -16 7 -13 9 17 6 34 -3 38 -1 35 18 -2
17 -13 22 -58 29 -30 4 -71 8 -90 9 -19 0 -27 3 -17 5 9 3 17 9 17 14 0 15
-15 10 -45 -13 l-27 -21 5 29 c3 16 9 55 12 87 6 52 18 73 27 47 2 -6 22 -1
48 12 34 17 61 22 110 22 81 -1 213 -18 231 -30 15 -9 20 -11 45 -13 12 -1 14
-4 6 -14 -14 -16 -22 -99 -11 -113 15 -19 -19 -54 -54 -54 -56 0 -71 -10 -93
-58 -23 -50 -64 -212 -64 -249 0 -14 -10 -28 -26 -36 l-27 -14 22 -15 c27 -19
17 -30 -16 -17 -20 7 -30 6 -44 -7 -11 -10 -38 -17 -73 -18 -129 -5 -73 -50
109 -88 82 -17 83 -17 61 -34 -11 -8 -28 -14 -38 -14 -10 0 -18 -5 -18 -11 0
-8 -14 -10 -40 -6 -22 3 -40 1 -40 -4 0 -5 5 -9 12 -9 6 0 9 -3 5 -6 -10 -10
44 -53 59 -47 27 10 15 -20 -18 -46 -14 -11 -21 -11 -33 -1 -8 7 -21 10 -29 7
-7 -3 -19 0 -25 6 -6 6 -11 8 -11 4 0 -4 -9 -3 -20 3 -30 16 -40 4 -28 -33 19
-55 50 -87 110 -115 32 -14 58 -31 58 -38 0 -7 12 -15 27 -19 28 -7 75 -50 65
-59 -12 -13 20 -5 42 9 13 9 38 14 56 13 l33 -2 -54 -49 c-55 -50 -180 -117
-217 -117 -31 0 -106 104 -130 181 -6 19 -12 62 -14 97 -2 36 -7 61 -13 59
-18 -6 -55 -69 -66 -111 -16 -65 -17 -66 -56 -82 -21 -9 -77 -35 -124 -60 -48
-24 -110 -49 -139 -55 -43 -9 -67 -24 -131 -81 -44 -38 -86 -82 -94 -99 -43
-83 -135 -404 -135 -471 0 -27 -13 -94 -30 -153 -5 -16 -12 -49 -16 -72 l-7
-43 546 0 c511 0 546 1 550 18 4 16 5 16 6 -1 1 -12 5 -15 13 -11 7 4 31 7 54
5 23 -1 45 2 49 8 3 6 11 11 17 11 7 0 6 -6 -2 -15 -17 -21 -1 -19 23 3 19 16
20 16 14 -1 -6 -16 24 -17 539 -17 l545 0 -5 68 c-3 37 -8 107 -11 157 -9 139
-41 256 -98 365 -28 52 -62 108 -76 124 -30 33 -152 117 -301 206 -58 35 -128
82 -157 104 -28 23 -69 52 -91 65 -21 13 -55 38 -76 57 -32 29 -36 38 -36 83
0 42 -4 53 -26 70 -26 20 -26 22 -19 111 5 64 11 90 20 90 20 0 74 48 91 82
10 19 15 52 13 92 -2 56 11 130 44 241 13 42 14 102 6 245 -3 63 -10 94 -25
120 -12 19 -25 45 -28 57 -10 33 -81 87 -170 129 -76 36 -83 38 -200 40 -76 1
-136 -3 -162 -11z m271 -606 c11 -17 2 -18 -25 -4 -24 14 -24 14 -3 15 12 0
25 -5 28 -11z m-80 -23 c-42 -13 -59 -11 -35 4 8 6 29 9 45 9 28 -1 28 -1 -10
-13z m2 -42 c10 -22 10 -25 -4 -20 -13 6 -14 4 -3 -9 12 -14 11 -15 -14 -3
-16 7 -23 14 -17 16 6 2 9 8 5 13 -6 10 3 29 14 29 4 0 12 -12 19 -26z m83
-143 c0 -9 -9 -22 -20 -29 -11 -7 -20 -23 -20 -36 0 -22 -26 -43 -38 -31 -3 3
-7 21 -8 40 -3 29 0 35 16 35 11 0 20 7 20 15 0 8 6 12 14 9 8 -3 17 -1 21 5
3 6 -1 11 -10 11 -9 0 -13 5 -10 10 9 15 35 -7 35 -29z m-360 -189 c14 -14 13
-15 -5 -8 -11 4 -33 10 -48 13 -21 4 -25 8 -15 14 16 10 47 2 68 -19z m84 9
c3 -5 -6 -12 -20 -15 -29 -8 -39 -3 -29 13 8 13 42 14 49 2z m-169 -971 c0
-18 -6 -26 -23 -28 -27 -4 -40 22 -22 44 19 22 45 13 45 -16z m356 -133 c-1
-4 -3 -7 -6 -7 -40 0 -40 0 -25 10 16 10 32 9 31 -3z m39 -25 c0 -5 -7 -9 -15
-9 -8 0 -12 4 -9 9 3 4 9 8 15 8 5 0 9 -4 9 -8z m-40 -11 c0 -18 -18 -21 -30
-6 -10 13 -9 15 9 15 11 0 21 -4 21 -9z m-75 -41 c17 -4 22 -8 13 -9 -14 -1
-7 -17 34 -81 28 -44 53 -79 54 -77 2 2 8 26 14 53 5 27 12 59 16 71 6 20 3
22 -30 21 -20 -1 -36 -5 -36 -10 0 -4 -5 -8 -11 -8 -5 0 -7 5 -3 11 3 6 1 15
-7 19 -15 10 66 6 99 -4 20 -7 20 -9 8 -29 -8 -12 -22 -64 -32 -115 -18 -92
-18 -92 -54 -102 -51 -14 -80 -11 -125 14 l-40 22 3 59 c2 33 7 74 12 90 4 17
11 42 14 58 7 28 17 31 71 17z m91 -77 c-3 -8 -6 -17 -6 -19 0 -3 -4 -2 -10 1
-17 11 -12 45 6 38 8 -3 13 -12 10 -20z m-172 -204 c-27 -11 -34 -10 -34 0 0
11 31 20 44 13 5 -3 1 -9 -10 -13z"/>
<path d="M1230 524 c0 -17 22 -14 28 4 2 7 -3 12 -12 12 -9 0 -16 -7 -16 -16z"/>
<path d="M1506 303 c-9 -9 -7 -33 3 -33 12 0 22 28 12 34 -5 3 -11 3 -15 -1z"/>
<path d="M1557 224 c-4 -4 -7 -17 -7 -28 0 -19 1 -19 17 -3 12 11 14 20 7 27
-6 6 -13 7 -17 4z"/>
<path d="M1510 152 c0 -6 -12 -18 -27 -26 -16 -8 -23 -15 -17 -16 18 0 60 37
52 46 -5 4 -8 2 -8 -4z"/>
<path d="M1608 138 c-7 -18 2 -39 13 -32 12 7 12 44 0 44 -5 0 -11 -6 -13 -12z"/>
<path d="M1342 1614 c1 -9 9 -19 16 -22 9 -3 13 2 10 14 -1 9 -9 19 -16 22 -9
3 -13 -2 -10 -14z"/>
<path d="M1130 1538 c0 -43 30 -117 56 -138 16 -14 17 -13 10 5 -4 11 -13 34
-18 50 -6 17 -15 34 -19 40 -5 5 -9 18 -9 30 0 11 -5 27 -10 35 -7 11 -10 6
-10 -22z"/>
</g>
</svg>
